<?xml version="1.0" encoding="UTF-8" standalone="no"?>
<svg
   xmlns:dc="http://purl.org/dc/elements/1.1/"
   xmlns:cc="http://creativecommons.org/ns#"
   xmlns:rdf="http://www.w3.org/1999/02/22-rdf-syntax-ns#"
   xmlns:svg="http://www.w3.org/2000/svg"
   xmlns="http://www.w3.org/2000/svg"
   viewBox="0 0 257.33334 257.33334"
   height="257.33334"
   width="257.33334"
   xml:space="preserve"
   id="svg2"
   version="1.1"><metadata
     id="metadata8"><rdf:RDF><cc:Work
         rdf:about=""><dc:format>image/svg+xml</dc:format><dc:type
           rdf:resource="http://purl.org/dc/dcmitype/StillImage" /></cc:Work></rdf:RDF></metadata><defs
     id="defs6" /><g
     transform="matrix(1.3333333,0,0,-1.3333333,0,257.33333)"
     id="g10"><g
       transform="scale(0.1)"
       id="g12"><path
         id="path14"
         style="fill:#ffffff;fill-opacity:1;fill-rule:evenodd;stroke:none"
         d="M 0,1927.56 H 1927.56 V 0 H 0 v 1927.56" /><path
         id="path16"
         style="fill:#231f20;fill-opacity:1;fill-rule:evenodd;stroke:none"
         d="m 1074.29,1504.84 c -5.45,-0.82 -10.69,-20.89 -21.21,-31.36 -7.72,-7.53 -17.32,-7.09 -22.45,-16.41 -1.94,-3.46 -1.31,-9.43 -3.5,-15.14 -4.31,-11.42 -19.45,-12.43 -19.45,-24.89 -0.04,-13.45 12.61,-16.01 23.61,-25.56 8.58,-7.66 9.39,-12.96 19.78,-16.69 8.86,-3.02 22.06,6.84 33.91,3.29 9.75,-2.9 19.09,-4.98 21.29,-14.99 1.93,-9.23 -0.14,-23.54 -11.95,-21.89 -4,0.46 -21.28,6.26 -42.48,4.01 -25.63,-2.92 -54.828,-11.27 -57.695,-39.82 -1.579,-15.95 18.165,-34.77 37.225,-30.95 13.17,2.6 6.94,18.14 14.11,25.7 9.41,9.67 62.72,-33.77 112.27,-33.77 20.85,0 36.39,5.27 51.79,21.42 1.44,1.23 3.19,3.87 5.43,4.04 2.09,-0.17 5.76,-2.24 6.97,-3.12 39.9,-32.07 70.07,-96.42 216.74,-97.17 20.65,-0.13 44.13,-9.97 63.32,-27.46 17.11,-15.82 27.11,-40.45 36.84,-65.44 14.7,-37.46 40.99,-73.93 80.86,-114.476 2.19,-2.176 35.02,-27.699 37.65,-29.605 0.41,-0.282 2.83,-6.039 1.99,-9.246 -0.97,-24.333 -4.51,-95.059 48.22,-98.254 12.88,-0.661 9.51,8.418 9.51,14.632 -0.03,12.329 -2.26,24.571 4.22,37.184 8.88,17.332 -18.83,25.32 -18.03,62.84 0.59,27.949 -22.92,23.191 -34.82,44.485 -6.87,12.35 -12.97,18.9 -12.54,33.99 2.69,84.96 -18.07,140.79 -28.42,154.5 -8.09,10.35 -14.76,14.45 -7.37,19.25 44,29.07 53.98,56.1 53.98,56.1 23.4,55.01 44.44,105.25 73.46,127.36 5.85,4.57 20.84,15.78 30.01,20.15 27.11,12.77 41.35,20.51 49.23,28.17 12.41,12.11 22.27,37.41 10.34,52.74 -14.84,18.92 -40.49,3.91 -51.81,-2.81 -80.91,-48.01 -92.82,-132.71 -120.84,-181.33 -22.37,-38.87 -58.71,-67.42 -91.21,-69.75 -24.35,-1.81 -50.63,3.12 -76.77,14.61 -63.61,27.88 -98.39,63.88 -106.62,70.24 -17.08,13.19 -149.74,143.42 -257.2,148.72 0,0 -13.35,26.72 -16.7,27.16 -7.86,1 -15.9,-15.94 -21.66,-17.92 -5.43,-1.8 -14.55,18.35 -20.03,17.46" /><path
         id="path18"
         style="fill:#231f20;fill-opacity:1;fill-rule:evenodd;stroke:none"
         d="m 601.168,727.648 c -10.125,0.254 -18.715,8.555 -18.715,18.809 l 0.027,335.253 H 471.988 V 712.172 c 0,-18.129 14.672,-32.891 32.68,-32.891 h 193.121 c 18.125,0 32.621,14.762 32.621,32.891 V 1081.71 H 620.023 l -0.089,-335.253 c 0,-10.254 -8.602,-18.555 -18.766,-18.809" /><path
         id="path20"
         style="fill:#231f20;fill-opacity:1;fill-rule:evenodd;stroke:none"
         d="M 971.086,1081.71 H 803.879 c -19.801,0 -35.91,-16.09 -35.91,-36.08 V 679.281 h 110.594 v 336.039 c 0.066,10.29 8.39,18.46 18.687,18.46 10.32,0 18.605,-7.97 18.84,-18.17 V 679.281 h 110.12 v 336.329 c 0.15,10.2 8.42,18.17 18.74,18.17 10.21,0 18.65,-8.17 18.71,-18.46 V 679.281 h 110.61 v 366.349 c 0,19.99 -16.14,36.08 -35.93,36.08 H 971.086" /><path
         id="path22"
         style="fill:#231f20;fill-opacity:1;fill-rule:evenodd;stroke:none"
         d="M 398.285,780.406 H 286.668 V 679.281 H 176.227 v 402.429 h 222.761 c 19.942,0 35.516,-16.21 35.516,-36.25 V 816.68 c 0,-20.106 -16.184,-36.274 -36.219,-36.274 z m -74.144,234.214 c 0.082,11.19 -9.036,19.16 -18.696,19.16 H 286.668 V 830.219 h 18.777 c 9.727,0 18.778,7.75 18.696,18.906 v 165.495" /><path
         id="path24"
         style="fill:#231f20;fill-opacity:1;fill-rule:evenodd;stroke:none"
         d="m 1602.98,726.988 c 0,-27.347 -21.92,-49.562 -49.05,-49.562 -27.39,0 -49.41,22.066 -49.41,49.562 0,26.95 22.02,49.496 48.61,49.496 27.93,0 49.85,-21.867 49.85,-49.496 z m -49.73,42.285 c -22.21,0 -40.85,-19.175 -40.85,-42.429 0,-23.324 18.64,-42.336 41.53,-42.336 22.71,0 41.13,19.012 41.13,42.336 0,23.293 -18.42,42.429 -41.13,42.429 h -0.68" /><path
         id="path26"
         style="fill:#231f20;fill-opacity:1;fill-rule:evenodd;stroke:none"
         d="m 1577.11,698.313 h -13.18 l -16.97,22.57 v -22.57 h -10.75 v 57.046 h 11.3 c 15.39,0 23.57,-5.8 23.57,-16.929 0,-7.422 -4.84,-13.981 -11.56,-15.977 l -0.79,-0.285 z m -28.28,31.824 c 7.66,0 11.73,2.707 11.73,8.156 0,4.852 -3.91,7.34 -11.4,7.34 h -2.2 v -15.496 h 1.87" /><path
         id="path28"
         style="fill:#231f20;fill-opacity:1;fill-rule:evenodd;stroke:none"
         d="m 1359.68,679.281 v 101.032 h -37.55 V 679.281 h -110.37 v 366.349 c 0,19.99 16.12,36.08 35.91,36.08 h 186.48 c 19.84,0 35.94,-16.09 35.94,-36.08 V 679.281 Z m 0,150.875 v 185.304 c -0.27,10.25 -8.51,18.12 -18.83,18.12 -10.19,0 -18.62,-8.19 -18.72,-18.4 V 830.156 h 37.55" /><path
         id="path30"
         style="fill:#231f20;fill-opacity:1;fill-rule:evenodd;stroke:none"
         d="m 179.332,476.332 v 110.543 h 12.332 v -10.379 c 2.902,4.063 6.191,7.121 9.863,9.149 3.649,2.027 8.09,3.058 13.309,3.058 6.832,0 12.844,-1.773 18.062,-5.265 5.239,-3.52 9.168,-8.481 11.813,-14.875 2.676,-6.399 4.008,-13.415 4.008,-21.043 0,-8.168 -1.461,-15.543 -4.418,-22.094 -2.93,-6.551 -7.192,-11.559 -12.793,-15.051 -5.602,-3.473 -11.485,-5.219 -17.649,-5.219 -4.523,0 -8.558,0.949 -12.152,2.852 -3.594,1.902 -6.523,4.316 -8.84,7.219 v -38.895 z m 12.254,70.133 c 0,-10.274 2.078,-17.879 6.242,-22.813 4.16,-4.906 9.227,-7.371 15.129,-7.371 6.016,0 11.176,2.543 15.469,7.657 4.289,5.085 6.445,12.972 6.445,23.66 0,10.195 -2.105,17.804 -6.289,22.89 -4.187,5.059 -9.199,7.602 -15.004,7.602 -5.781,0 -10.894,-2.695 -15.336,-8.09 -4.445,-5.395 -6.656,-13.258 -6.656,-23.535" /><path
         id="path32"
         style="fill:#231f20;fill-opacity:1;fill-rule:evenodd;stroke:none"
         d="m 394.48,506.957 v 11.738 c -6.242,-9.043 -14.691,-13.539 -25.378,-13.539 -4.704,0 -9.122,0.903 -13.204,2.696 -4.089,1.8 -7.121,4.089 -9.097,6.812 -2.004,2.746 -3.391,6.09 -4.188,10.043 -0.539,2.672 -0.82,6.887 -0.82,12.664 v 49.504 h 13.535 v -44.312 c 0,-7.094 0.285,-11.844 0.824,-14.309 0.875,-3.57 2.672,-6.348 5.422,-8.402 2.774,-2.028 6.188,-3.032 10.25,-3.032 4.059,0 7.864,1.028 11.43,3.11 3.574,2.082 6.09,4.933 7.555,8.5 1.492,3.601 2.234,8.812 2.234,15.625 v 42.82 h 13.539 V 506.957 H 394.48" /><path
         id="path34"
         style="fill:#231f20;fill-opacity:1;fill-rule:evenodd;stroke:none"
         d="m 504.867,506.957 v 79.918 h 12.102 v -11.199 c 2.519,3.906 5.859,7.066 10.019,9.429 4.164,2.387 8.914,3.598 14.231,3.598 5.91,0 10.765,-1.238 14.539,-3.699 3.805,-2.469 6.476,-5.883 8.019,-10.305 6.344,9.328 14.567,14.004 24.688,14.004 7.937,0 14.023,-2.211 18.293,-6.605 4.262,-4.391 6.394,-11.149 6.394,-20.27 v -54.871 h -13.461 v 50.348 c 0,5.422 -0.437,9.328 -1.312,11.718 -0.899,2.364 -2.488,4.29 -4.777,5.754 -2.309,1.438 -5.036,2.184 -8.145,2.184 -5.625,0 -10.273,-1.875 -14,-5.625 -3.699,-3.727 -5.574,-9.715 -5.574,-17.934 v -46.445 h -13.539 v 51.918 c 0,6.039 -1.102,10.559 -3.317,13.566 -2.207,3.004 -5.804,4.52 -10.839,4.52 -3.801,0 -7.321,-1 -10.555,-3.031 -3.238,-2.004 -5.602,-4.934 -7.039,-8.789 -1.465,-3.875 -2.188,-9.45 -2.188,-16.723 v -41.461 h -13.539" /><path
         id="path36"
         style="fill:#231f20;fill-opacity:1;fill-rule:evenodd;stroke:none"
         d="m 762.457,516.82 c -5.035,-4.265 -9.867,-7.269 -14.488,-9.043 -4.653,-1.746 -9.633,-2.621 -14.953,-2.621 -8.786,0 -15.516,2.133 -20.243,6.422 -4.703,4.293 -7.066,9.789 -7.066,16.445 0,3.926 0.875,7.5 2.672,10.739 1.773,3.234 4.113,5.828 6.992,7.781 2.899,1.953 6.137,3.441 9.758,4.445 2.648,0.696 6.656,1.387 12.023,2.028 10.942,1.312 19.012,2.851 24.172,4.679 0.055,1.848 0.078,3.032 0.078,3.52 0,5.519 -1.285,9.426 -3.851,11.66 -3.442,3.086 -8.606,4.602 -15.414,4.602 -6.371,0 -11.074,-1.106 -14.133,-3.34 -3.031,-2.239 -5.266,-6.192 -6.731,-11.871 l -13.23,1.824 c 1.211,5.652 3.187,10.254 5.937,13.719 2.75,3.492 6.758,6.191 11.969,8.066 5.219,1.879 11.258,2.828 18.141,2.828 6.832,0 12.355,-0.824 16.617,-2.414 4.27,-1.621 7.402,-3.625 9.43,-6.066 2.008,-2.442 3.394,-5.496 4.215,-9.219 0.437,-2.316 0.668,-6.477 0.668,-12.488 v -18.059 c 0,-12.617 0.281,-20.578 0.871,-23.891 0.57,-3.339 1.722,-6.554 3.422,-9.609 h -14.157 c -1.39,2.797 -2.312,6.086 -2.699,9.863 z m -1.133,30.266 c -4.929,-2.031 -12.301,-3.727 -22.117,-5.141 -5.574,-0.797 -9.531,-1.695 -11.816,-2.695 -2.313,-1.004 -4.11,-2.469 -5.344,-4.422 -1.258,-1.926 -1.899,-4.058 -1.899,-6.418 0,-3.625 1.387,-6.633 4.11,-9.047 2.722,-2.39 6.73,-3.593 11.996,-3.593 5.215,0 9.863,1.128 13.922,3.414 4.062,2.285 7.066,5.418 8.965,9.379 1.468,3.054 2.183,7.578 2.183,13.539 v 4.984" /><path
         id="path38"
         style="fill:#231f20;fill-opacity:1;fill-rule:evenodd;stroke:none"
         d="m 876.902,506.957 v 15.438 h 15.438 v -15.438 h -15.438" /><path
         id="path40"
         style="fill:#231f20;fill-opacity:1;fill-rule:evenodd;stroke:none"
         d="m 1045.09,536.242 13.31,-1.75 c -1.44,-9.168 -5.17,-16.359 -11.18,-21.551 -5.98,-5.187 -13.35,-7.785 -22.09,-7.785 -10.92,0 -19.73,3.574 -26.357,10.715 -6.656,7.141 -9.996,17.391 -9.996,30.75 0,8.629 1.442,16.184 4.293,22.656 2.875,6.477 7.22,11.332 13.07,14.567 5.84,3.238 12.21,4.859 19.07,4.859 8.68,0 15.8,-2.211 21.3,-6.605 5.52,-4.391 9.06,-10.606 10.63,-18.703 l -13.18,-2.028 c -1.26,5.367 -3.47,9.403 -6.65,12.125 -3.19,2.699 -7.04,4.063 -11.56,4.063 -6.84,0 -12.39,-2.442 -16.65,-7.348 -4.26,-4.883 -6.4,-12.613 -6.4,-23.199 0,-10.742 2.06,-18.551 6.19,-23.43 4.12,-4.855 9.49,-7.297 16.11,-7.297 5.32,0 9.74,1.645 13.31,4.907 3.57,3.261 5.83,8.273 6.78,15.054" /><path
         id="path42"
         style="fill:#231f20;fill-opacity:1;fill-rule:evenodd;stroke:none"
         d="m 1141.99,546.926 c 0,14.801 4.11,25.769 12.36,32.887 6.86,5.906 15.23,8.89 25.12,8.89 11,0 19.99,-3.598 26.95,-10.82 6.99,-7.188 10.46,-17.133 10.46,-29.824 0,-10.301 -1.54,-18.391 -4.63,-24.274 -3.08,-5.91 -7.57,-10.484 -13.46,-13.746 -5.91,-3.262 -12.33,-4.883 -19.32,-4.883 -11.17,0 -20.22,3.574 -27.13,10.766 -6.91,7.168 -10.35,17.492 -10.35,31.004 z m 13.92,0 c 0,-10.246 2.24,-17.903 6.71,-22.988 4.47,-5.114 10.09,-7.657 16.85,-7.657 6.73,0 12.33,2.567 16.8,7.68 4.45,5.113 6.68,12.922 6.68,23.406 0,9.891 -2.23,17.391 -6.73,22.477 -4.49,5.086 -10.07,7.633 -16.75,7.633 -6.76,0 -12.38,-2.547 -16.85,-7.606 -4.47,-5.062 -6.71,-12.719 -6.71,-22.945" /><path
         id="path44"
         style="fill:#231f20;fill-opacity:1;fill-rule:evenodd;stroke:none"
         d="m 1309.82,506.957 v 79.918 h 12.1 v -11.199 c 2.52,3.906 5.86,7.066 10.02,9.429 4.16,2.387 8.92,3.598 14.23,3.598 5.91,0 10.77,-1.238 14.54,-3.699 3.8,-2.469 6.48,-5.883 8.02,-10.305 6.34,9.328 14.56,14.004 24.68,14.004 7.95,0 14.03,-2.211 18.3,-6.605 4.26,-4.391 6.4,-11.149 6.4,-20.27 v -54.871 h -13.47 v 50.348 c 0,5.422 -0.43,9.328 -1.31,11.718 -0.9,2.364 -2.49,4.29 -4.78,5.754 -2.31,1.438 -5.03,2.184 -8.14,2.184 -5.63,0 -10.27,-1.875 -14,-5.625 -3.7,-3.727 -5.57,-9.715 -5.57,-17.934 v -46.445 h -13.54 v 51.918 c 0,6.039 -1.11,10.559 -3.32,13.566 -2.21,3.004 -5.8,4.52 -10.84,4.52 -3.8,0 -7.32,-1 -10.56,-3.031 -3.24,-2.004 -5.6,-4.934 -7.04,-8.789 -1.46,-3.875 -2.18,-9.45 -2.18,-16.723 v -41.461 h -13.54" /></g></g></svg>