<?xml version="1.0" encoding="UTF-8"?>
<svg xmlns="http://www.w3.org/2000/svg" xmlns:xlink="http://www.w3.org/1999/xlink" width="330.63pt" height="101.34pt" viewBox="0 0 330.63 101.34" version="1.1">
<defs>
<clipPath id="clip1">
  <path d="M 121 0 L 330.628906 0 L 330.628906 101.339844 L 121 101.339844 Z M 121 0 "/>
</clipPath>
<clipPath id="clip2">
  <path d="M 0 56 L 93 56 L 93 101.339844 L 0 101.339844 Z M 0 56 "/>
</clipPath>
</defs>
<g id="surface1">
<g clip-path="url(#clip1)" clip-rule="nonzero">
<path style=" stroke:none;fill-rule:evenodd;fill:rgb(13.699341%,12.199402%,12.5%);fill-opacity:1;" d="M 177.691406 88.164063 L 170.757813 101.0625 L 121.351563 101.0625 L 126.441406 91.585938 Z M 228.285156 34.101563 L 238.5 18.007813 L 269.511719 15.433594 L 240.851563 13.816406 L 248.714844 0 C 248.714844 0 268.996094 0 300.007813 0 C 331.019531 0 331.902344 13.304688 330.066406 22.5625 C 328.230469 31.820313 323.597656 38.65625 316.472656 43.136719 C 309.34375 47.621094 302.285156 48.355469 302.285156 48.355469 C 307.800781 52.25 312.941406 62.464844 312.574219 68.859375 C 312.207031 75.253906 311.621094 81.867188 299.789063 90.757813 C 287.957031 99.648438 270.761719 101.339844 270.761719 101.339844 L 199.402344 101.339844 L 195.4375 87.746094 L 229.976563 85.246094 L 194.113281 82.671875 L 189.410156 66.578125 L 181.179688 81.9375 L 134.445313 78.742188 L 140.429688 67.917969 L 243.351563 61.070313 L 147.507813 55.320313 L 152.613281 45.929688 L 256.429688 39.171875 L 159.71875 32.996094 L 165.816406 22.195313 L 223.582031 18.59375 Z M 178.222656 0.132813 L 218.839844 0.132813 L 222.160156 12.5625 L 172.667969 9.46875 Z M 271.378906 37.972656 C 274.363281 31.597656 277.816406 25.691406 280.917969 19.433594 C 284.992188 19.324219 286.523438 19.28125 289.917969 19.433594 C 294.386719 19.632813 296.355469 23.308594 296.757813 25.734375 C 297.324219 29.140625 295.640625 32.148438 293.699219 34.191406 C 288.894531 39.257813 279.449219 38.433594 271.378906 37.972656 Z M 266.695313 77.238281 C 272.429688 77.378906 277.453125 71.875 278.039063 67.132813 C 278.601563 62.585938 274.773438 58.375 271.019531 58.3125 C 268.15625 58.265625 265.375 58.28125 262.378906 58.3125 C 258.941406 64.355469 255.664063 70.558594 252.660156 77.03125 C 258.175781 77.136719 261.675781 77.113281 266.695313 77.238281 "/>
</g>
<g clip-path="url(#clip2)" clip-rule="nonzero">
<path style=" stroke:none;fill-rule:evenodd;fill:rgb(13.699341%,12.199402%,12.5%);fill-opacity:1;" d="M 24.847656 95.527344 L 21.792969 101.21875 L 0 101.21875 L 2.246094 97.039063 Z M 47.164063 71.683594 L 51.667969 64.585938 L 65.347656 63.449219 L 52.707031 62.738281 L 56.171875 56.644531 C 56.171875 56.644531 65.117188 56.644531 78.796875 56.644531 C 92.472656 56.644531 92.863281 62.511719 92.054688 66.59375 C 91.242188 70.679688 89.203125 73.691406 86.058594 75.667969 C 82.914063 77.648438 79.800781 77.972656 79.800781 77.972656 C 82.230469 79.6875 84.5 84.195313 84.339844 87.015625 C 84.175781 89.835938 83.917969 92.75 78.699219 96.671875 C 73.480469 100.59375 65.898438 101.339844 65.898438 101.339844 L 34.425781 101.339844 L 32.675781 95.34375 L 47.910156 94.242188 L 32.09375 93.105469 L 30.019531 86.007813 L 26.386719 92.78125 L 5.773438 91.371094 L 8.414063 86.597656 L 53.808594 83.578125 L 11.535156 81.042969 L 13.789063 76.902344 L 59.578125 73.917969 L 16.921875 71.199219 L 19.613281 66.433594 L 45.089844 64.84375 Z M 25.085938 56.703125 L 42.996094 56.703125 L 44.460938 62.183594 L 22.632813 60.820313 Z M 66.167969 73.390625 C 67.484375 70.578125 69.011719 67.976563 70.378906 65.214844 C 72.175781 65.167969 72.847656 65.148438 74.347656 65.214844 C 76.316406 65.300781 77.1875 66.925781 77.363281 67.992188 C 77.613281 69.496094 76.871094 70.820313 76.015625 71.726563 C 73.894531 73.957031 69.726563 73.59375 66.167969 73.390625 Z M 64.105469 90.710938 C 66.632813 90.769531 68.847656 88.34375 69.105469 86.253906 C 69.355469 84.246094 67.667969 82.390625 66.011719 82.363281 C 64.75 82.34375 63.523438 82.347656 62.199219 82.363281 C 60.683594 85.027344 59.238281 87.765625 57.914063 90.617188 C 60.347656 90.664063 61.890625 90.65625 64.105469 90.710938 "/>
</g>
</g>
</svg>
