<?xml version="1.0" encoding="UTF-8"?>
<svg xmlns="http://www.w3.org/2000/svg" xmlns:xlink="http://www.w3.org/1999/xlink" width="355.73pt" height="236.69pt" viewBox="0 0 355.73 236.69" version="1.1">
<defs>
<clipPath id="clip1">
  <path d="M 300 172 L 355.730469 172 L 355.730469 236 L 300 236 Z M 300 172 "/>
</clipPath>
<clipPath id="clip2">
  <path d="M 230 173 L 294 173 L 294 236.691406 L 230 236.691406 Z M 230 173 "/>
</clipPath>
<clipPath id="clip3">
  <path d="M 161 154 L 226 154 L 226 236.691406 L 161 236.691406 Z M 161 154 "/>
</clipPath>
<clipPath id="clip4">
  <path d="M 69 154 L 133 154 L 133 236.691406 L 69 236.691406 Z M 69 154 "/>
</clipPath>
<clipPath id="clip5">
  <path d="M 0 173 L 64 173 L 64 236.691406 L 0 236.691406 Z M 0 173 "/>
</clipPath>
</defs>
<g id="surface1">
<g clip-path="url(#clip1)" clip-rule="nonzero">
<path style=" stroke:none;fill-rule:nonzero;fill:rgb(0.799561%,0.799561%,0.799561%);fill-opacity:1;" d="M 353.96875 192.316406 L 338.445313 192.316406 C 337.964844 189.742188 337.214844 187.929688 336.195313 186.910156 C 334.535156 185.25 331.703125 184.394531 327.789063 184.394531 C 323.9375 184.394531 321.261719 185.035156 319.765625 186.320313 C 318.640625 187.285156 318.050781 188.621094 318.050781 190.28125 C 318.050781 192.632813 321.320313 194.511719 327.789063 195.957031 C 335.179688 197.558594 340.480469 198.953125 343.742188 200.074219 C 344.601563 200.398438 345.347656 200.664063 345.886719 200.929688 C 352.472656 204.035156 355.734375 208.753906 355.734375 215.066406 C 355.734375 222.773438 352.523438 228.394531 346.152344 231.925781 C 345.347656 232.355469 344.601563 232.730469 343.742188 233.105469 C 339.625 234.871094 334.808594 235.777344 329.402344 235.777344 C 321.320313 235.777344 314.785156 234.332031 309.808594 231.496094 C 306.679688 229.675781 304.339844 227.386719 302.78125 224.628906 C 301.222656 221.871094 300.441406 218.652344 300.441406 214.957031 L 316.710938 214.957031 C 316.710938 217.742188 317.730469 219.9375 319.710938 221.433594 C 321.695313 222.988281 325.066406 223.792969 329.824219 223.792969 C 333.414063 223.792969 336.085938 223.039063 337.855469 221.542969 C 339.25 220.363281 339.890625 219.078125 339.890625 217.582031 C 339.890625 215.066406 336.683594 213.089844 330.308594 211.695313 C 320.78125 209.660156 314.785156 208 312.324219 206.820313 C 305.796875 203.769531 302.585938 199.0625 302.585938 192.527344 C 302.585938 187.285156 304.246094 182.84375 307.667969 179.203125 C 311.953125 174.652344 318.371094 172.402344 326.886719 172.402344 C 333.894531 172.402344 339.515625 173.421875 343.746094 175.402344 C 344.117188 175.558594 344.441406 175.722656 344.765625 175.941406 C 347.8125 177.59375 350.113281 179.792969 351.65625 182.527344 C 353.195313 185.25 353.96875 188.519531 353.96875 192.316406 "/>
</g>
<path style=" stroke:none;fill-rule:nonzero;fill:rgb(0.799561%,0.799561%,0.799561%);fill-opacity:1;" d="M 346.957031 152.8125 C 347.28125 153.242188 347.4375 153.722656 347.4375 154.257813 C 347.4375 155.003906 347.171875 155.652344 346.632813 156.183594 C 346.101563 156.722656 345.40625 157.046875 344.550781 157.09375 C 344.921875 157.253906 345.1875 157.417969 345.40625 157.628906 L 346.902344 159.613281 L 348.078125 161.589844 L 346.152344 161.589844 L 345.238281 159.984375 C 344.65625 158.972656 344.175781 158.21875 343.742188 157.84375 C 343.691406 157.792969 343.636719 157.734375 343.527344 157.683594 L 342.25 157.3125 L 341.285156 157.3125 L 341.285156 161.589844 L 339.675781 161.589844 L 339.675781 151.53125 L 343.152344 151.53125 C 343.371094 151.53125 343.585938 151.582031 343.742188 151.582031 C 344.597656 151.582031 345.238281 151.691406 345.671875 151.847656 C 346.203125 152.011719 346.632813 152.328125 346.957031 152.8125 Z M 345.671875 154.421875 C 345.671875 154.097656 345.621094 153.832031 345.457031 153.617188 C 345.296875 153.351563 345.082031 153.183594 344.765625 153.085938 C 344.550781 153.027344 344.226563 152.976563 343.742188 152.917969 L 341.285156 152.917969 L 341.285156 155.917969 L 343.261719 155.917969 C 343.421875 155.917969 343.636719 155.917969 343.742188 155.917969 C 344.441406 155.867188 344.921875 155.757813 345.1875 155.492188 C 345.511719 155.21875 345.671875 154.84375 345.671875 154.421875 "/>
<path style=" stroke:none;fill-rule:nonzero;fill:rgb(0.799561%,0.799561%,0.799561%);fill-opacity:1;" d="M 353.0625 156.457031 C 353.0625 158.007813 352.679688 159.5625 351.824219 161.058594 C 351.027344 162.554688 349.898438 163.683594 348.402344 164.480469 C 346.902344 165.34375 345.40625 165.714844 343.792969 165.714844 C 343.742188 165.714844 343.742188 165.714844 343.742188 165.714844 C 342.140625 165.714844 340.640625 165.34375 339.144531 164.480469 C 337.640625 163.679688 336.519531 162.554688 335.714844 161.058594 C 334.859375 159.5625 334.484375 158.007813 334.484375 156.457031 C 334.484375 154.792969 334.859375 153.242188 335.714844 151.742188 C 336.570313 150.246094 337.699219 149.125 339.195313 148.316406 C 340.695313 147.511719 342.191406 147.140625 343.742188 147.089844 C 343.742188 147.089844 343.742188 147.089844 343.792969 147.089844 C 345.347656 147.089844 346.851563 147.515625 348.34375 148.316406 C 349.847656 149.125 351.027344 150.246094 351.824219 151.742188 C 352.679688 153.242188 353.0625 154.792969 353.0625 156.457031 Z M 351.507813 156.457031 C 351.507813 155.0625 351.183594 153.78125 350.488281 152.546875 C 349.789063 151.316406 348.828125 150.351563 347.597656 149.65625 C 346.367188 149.015625 345.082031 148.640625 343.792969 148.640625 C 343.742188 148.640625 343.742188 148.640625 343.742188 148.640625 C 342.457031 148.640625 341.175781 149.015625 339.949219 149.65625 C 338.710938 150.351563 337.75 151.316406 337.050781 152.546875 C 336.359375 153.78125 335.984375 155.0625 335.984375 156.457031 C 335.984375 157.792969 336.359375 159.074219 337.050781 160.308594 C 337.699219 161.484375 338.660156 162.453125 339.890625 163.140625 C 341.121094 163.839844 342.40625 164.164063 343.742188 164.164063 C 343.742188 164.164063 343.742188 164.164063 343.792969 164.164063 C 345.136719 164.164063 346.417969 163.839844 347.65625 163.140625 C 348.882813 162.453125 349.847656 161.484375 350.488281 160.308594 C 351.183594 159.074219 351.507813 157.792969 351.507813 156.457031 "/>
<path style=" stroke:none;fill-rule:nonzero;fill:rgb(0.799561%,0.799561%,0.799561%);fill-opacity:1;" d="M 262.007813 80.820313 L 305.957031 154.046875 L 235.355469 154.046875 L 193.390625 84.085938 L 161.597656 31.148438 L 193.390625 12.039063 L 213.40625 -0.00390625 L 262.007813 80.820313 "/>
<g clip-path="url(#clip2)" clip-rule="nonzero">
<path style=" stroke:none;fill-rule:nonzero;fill:rgb(0.799561%,0.799561%,0.799561%);fill-opacity:1;" d="M 279.296875 208.214844 L 279.296875 201.578125 C 277.746094 193.546875 270.628906 187.441406 262.171875 187.441406 C 262.113281 187.441406 262.0625 187.441406 262.007813 187.441406 C 252.429688 187.5 244.664063 195.316406 244.664063 204.890625 C 244.664063 214.476563 252.429688 222.289063 262.007813 222.398438 C 262.0625 222.398438 262.113281 222.398438 262.171875 222.398438 C 270.628906 222.398438 277.746094 216.242188 279.296875 208.214844 Z M 293.914063 204.890625 L 293.914063 234.921875 L 279.296875 234.921875 L 279.296875 231.601563 C 274.371094 234.816406 268.484375 236.691406 262.171875 236.691406 C 262.113281 236.691406 262.0625 236.691406 262.007813 236.691406 C 244.558594 236.582031 230.371094 222.339844 230.371094 204.890625 C 230.371094 187.445313 244.558594 173.207031 262.007813 173.101563 C 262.0625 173.101563 262.113281 173.101563 262.171875 173.101563 C 268.484375 173.101563 274.371094 174.976563 279.296875 178.183594 L 279.296875 174.703125 L 293.914063 174.703125 L 293.914063 204.890625 "/>
</g>
<g clip-path="url(#clip3)" clip-rule="nonzero">
<path style=" stroke:none;fill-rule:nonzero;fill:rgb(0.799561%,0.799561%,0.799561%);fill-opacity:1;" d="M 210.679688 208.214844 L 210.679688 201.578125 C 209.128906 193.546875 202.003906 187.441406 193.546875 187.441406 C 193.496094 187.441406 193.441406 187.441406 193.390625 187.441406 C 183.808594 187.5 176.046875 195.316406 176.046875 204.890625 C 176.046875 214.476563 183.808594 222.289063 193.390625 222.398438 C 193.441406 222.398438 193.496094 222.398438 193.546875 222.398438 C 202.003906 222.398438 209.128906 216.242188 210.679688 208.214844 Z M 225.289063 204.890625 L 225.289063 234.921875 L 210.679688 234.921875 L 210.679688 231.601563 C 205.699219 234.816406 199.867188 236.691406 193.546875 236.691406 C 193.496094 236.691406 193.441406 236.691406 193.390625 236.691406 C 175.941406 236.582031 161.757813 222.339844 161.757813 204.890625 C 161.757813 187.445313 175.941406 173.207031 193.390625 173.101563 C 193.441406 173.101563 193.496094 173.101563 193.546875 173.101563 C 199.867188 173.101563 205.699219 174.976563 210.679688 178.183594 L 210.679688 154.046875 L 225.289063 154.046875 L 225.289063 204.890625 "/>
</g>
<path style=" stroke:none;fill-rule:nonzero;fill:rgb(0.799561%,0.799561%,0.799561%);fill-opacity:1;" d="M 193.390625 125.246094 L 210.625 154.046875 L 140.074219 154.046875 L 100.898438 88.851563 L 99.1875 86.011719 L 100.898438 85 L 151.050781 54.804688 L 193.390625 125.246094 "/>
<path style=" stroke:none;fill-rule:nonzero;fill:rgb(0.799561%,0.799561%,0.799561%);fill-opacity:1;" d="M 140.128906 173.097656 L 156.027344 173.097656 L 156.027344 234.921875 L 140.128906 234.921875 L 140.128906 173.097656 "/>
<path style=" stroke:none;fill-rule:nonzero;fill:rgb(0.799561%,0.799561%,0.799561%);fill-opacity:1;" d="M 140.128906 154.363281 L 156.027344 154.363281 L 156.027344 168.332031 L 140.128906 168.332031 L 140.128906 154.363281 "/>
<g clip-path="url(#clip4)" clip-rule="nonzero">
<path style=" stroke:none;fill-rule:nonzero;fill:rgb(0.799561%,0.799561%,0.799561%);fill-opacity:1;" d="M 118.238281 208.214844 L 118.238281 201.578125 C 116.6875 193.546875 109.566406 187.441406 101.054688 187.441406 C 101.003906 187.441406 100.949219 187.441406 100.898438 187.441406 C 91.3125 187.5 83.554688 195.316406 83.554688 204.890625 C 83.554688 214.476563 91.3125 222.289063 100.898438 222.398438 C 100.949219 222.398438 101.003906 222.398438 101.054688 222.398438 C 109.566406 222.398438 116.6875 216.242188 118.238281 208.214844 Z M 132.847656 204.890625 L 132.847656 234.921875 L 118.238281 234.921875 L 118.238281 231.601563 C 113.261719 234.816406 107.375 236.691406 101.054688 236.691406 C 101.003906 236.691406 100.949219 236.691406 100.898438 236.691406 C 83.449219 236.582031 69.261719 222.339844 69.261719 204.890625 C 69.261719 187.445313 83.449219 173.207031 100.898438 173.101563 C 100.949219 173.101563 101.003906 173.101563 101.054688 173.101563 C 107.375 173.101563 113.261719 174.976563 118.238281 178.183594 L 118.238281 154.046875 L 132.847656 154.046875 L 132.847656 204.890625 "/>
</g>
<path style=" stroke:none;fill-rule:nonzero;fill:rgb(0.799561%,0.799561%,0.799561%);fill-opacity:1;" d="M 100.898438 129.957031 L 115.347656 154.046875 L 44.746094 154.046875 L 36.824219 140.824219 L 88.691406 109.671875 L 100.898438 129.957031 "/>
<g clip-path="url(#clip5)" clip-rule="nonzero">
<path style=" stroke:none;fill-rule:nonzero;fill:rgb(0.799561%,0.799561%,0.799561%);fill-opacity:1;" d="M 48.925781 208.214844 L 48.925781 201.578125 C 47.371094 193.546875 40.253906 187.441406 31.742188 187.441406 C 31.683594 187.441406 31.632813 187.441406 31.578125 187.441406 C 22.050781 187.5 14.292969 195.316406 14.292969 204.890625 C 14.292969 214.476563 22.050781 222.289063 31.578125 222.398438 C 31.632813 222.398438 31.683594 222.398438 31.742188 222.398438 C 40.253906 222.398438 47.371094 216.242188 48.925781 208.214844 Z M 63.535156 204.890625 L 63.535156 234.921875 L 48.925781 234.921875 L 48.925781 231.601563 C 43.941406 234.816406 38.054688 236.691406 31.742188 236.691406 C 31.683594 236.691406 31.632813 236.691406 31.578125 236.691406 C 14.183594 236.582031 0 222.339844 0 204.890625 C 0 187.445313 14.183594 173.207031 31.578125 173.101563 C 31.632813 173.101563 31.683594 173.101563 31.742188 173.101563 C 38.054688 173.101563 43.941406 174.976563 48.925781 178.183594 L 48.925781 174.703125 L 63.535156 174.703125 L 63.535156 204.890625 "/>
</g>
</g>
</svg>
