<?xml version="1.0" encoding="utf-8"?>
<svg viewBox="189.407 177.232 164.566 54.211" xmlns="http://www.w3.org/2000/svg">
  <g transform="matrix(1, 0, 0, 1, 28.156557, -3.044573)">
    <path style="stroke: none; fill-rule: evenodd; fill-opacity: 1;" d="M 168.555 181.429 L 202.391 181.429 C 206.363 181.429 209.57 184.503 209.57 188.476 L 209.57 188.991 C 209.57 192.964 206.363 196.167 202.391 196.167 L 168.555 196.167 C 164.582 196.167 161.25 192.964 161.25 188.991 L 161.25 188.476 C 161.25 184.503 164.582 181.429 168.555 181.429"/>
    <path style="stroke: none; fill-rule: evenodd; fill-opacity: 1;" d="M 161.25 207.32 C 161.25 203.472 164.84 200.655 168.812 200.655 L 198.801 200.655 C 202.777 200.655 205.98 203.859 205.98 207.831 L 205.98 208.214 C 205.98 212.187 202.777 215.394 198.801 215.394 L 178.426 215.394 C 177.398 215.394 176.5 216.288 176.5 217.316 L 176.5 227.312 C 176.5 231.284 173.297 234.488 169.324 234.488 L 168.426 234.488 C 164.453 234.488 161.25 231.284 161.25 227.312 L 161.25 207.32"/>
    <path style="stroke: none; fill-rule: evenodd; fill-opacity: 1;" d="M 214.184 227.312 L 214.055 187.581 C 214.055 183.609 217.129 180.277 221.23 180.277 L 222 180.277 C 225.973 180.277 229.176 183.609 229.176 187.581 L 229.305 227.312 C 229.305 231.284 226.102 234.488 222.129 234.488 L 221.23 234.488 C 217.258 234.488 214.184 231.284 214.184 227.312"/>
    <path style="stroke: none; fill-rule: evenodd; fill-opacity: 1;" d="M 305.437 185.019 L 321.457 211.163 C 325.047 216.804 325.816 218.214 325.816 222.441 C 325.816 228.98 319.793 233.976 314.535 233.976 L 292.875 233.976 C 288.902 233.976 285.699 231.284 285.699 227.312 L 285.699 226.929 C 285.699 222.956 288.902 219.749 292.875 219.749 L 306.207 219.749 C 306.973 219.749 307.488 219.62 307.742 219.109 C 308 218.468 307.871 218.214 307.488 217.57 L 298.004 202.32 C 297.875 202.062 297.746 201.679 297.492 201.679 C 297.105 201.679 296.977 202.062 296.848 202.32 L 282.367 227.183 C 280.059 231.159 277.367 233.976 273.523 233.976 L 245.711 233.976 C 240.328 233.976 235.074 228.851 235.074 223.468 L 235.074 187.581 C 235.074 183.609 238.277 180.402 242.25 180.402 L 243.148 180.402 C 247.121 180.402 250.324 183.609 250.324 187.581 L 250.324 216.929 C 250.324 217.956 251.094 218.855 252.246 218.855 L 266.09 218.855 C 268.523 218.855 269.934 217.956 271.215 215.777 L 289.801 185.019 C 291.594 182.07 294.414 180.53 297.746 180.53 C 300.949 180.53 303.516 181.941 305.437 185.019"/>
    <path style="stroke: none; fill-rule: evenodd; fill-opacity: 1;" d="M 168.555 181.429 L 202.391 181.429 C 206.363 181.429 209.57 184.503 209.57 188.476 L 209.57 188.991 C 209.57 192.964 206.363 196.167 202.391 196.167 L 168.555 196.167 C 164.582 196.167 161.25 192.964 161.25 188.991 L 161.25 188.476 C 161.25 184.503 164.582 181.429 168.555 181.429"/>
  </g>
</svg>