<?xml version="1.0" encoding="utf-8"?>
<svg viewBox="143.091 191.18 222.172 137.512" xmlns="http://www.w3.org/2000/svg">
  <path id="path16" style="fill:#231f20;fill-opacity:1;fill-rule:evenodd;stroke:none" d="M 107.429 150.484 C 106.884 150.402 106.36 148.395 105.308 147.348 C 104.536 146.595 103.576 146.639 103.063 145.707 C 102.869 145.361 102.932 144.764 102.713 144.193 C 102.282 143.051 100.768 142.95 100.768 141.704 C 100.764 140.359 102.029 140.103 103.129 139.148 C 103.987 138.382 104.068 137.852 105.107 137.479 C 105.993 137.177 107.313 138.163 108.498 137.808 C 109.473 137.518 110.407 137.31 110.627 136.309 C 110.82 135.386 110.613 133.955 109.432 134.12 C 109.032 134.166 107.304 134.746 105.184 134.521 C 102.621 134.229 99.701 133.394 99.415 130.539 C 99.257 128.944 101.231 127.062 103.137 127.444 C 104.454 127.704 103.831 129.258 104.548 130.014 C 105.489 130.981 110.82 126.637 115.775 126.637 C 117.86 126.637 119.414 127.164 120.954 128.779 C 121.098 128.902 121.273 129.166 121.497 129.183 C 121.706 129.166 122.073 128.959 122.194 128.871 C 126.184 125.664 129.201 119.229 143.868 119.154 C 145.933 119.141 148.281 118.157 150.2 116.408 C 151.911 114.826 152.911 112.363 153.884 109.864 C 155.354 106.118 157.983 102.471 161.97 98.416 C 162.189 98.199 165.472 95.647 165.735 95.456 C 165.776 95.428 166.018 94.852 165.934 94.531 C 165.837 92.098 165.483 85.025 170.756 84.706 C 172.044 84.64 171.707 85.548 171.707 86.169 C 171.704 87.402 171.481 88.626 172.129 89.888 C 173.017 91.621 170.246 92.42 170.326 96.172 C 170.385 98.966 168.034 98.491 166.844 100.62 C 166.157 101.855 165.547 102.51 165.59 104.019 C 165.859 112.515 163.783 118.098 162.748 119.469 C 161.939 120.504 161.272 120.914 162.011 121.394 C 166.411 124.301 167.409 127.004 167.409 127.004 C 169.749 132.505 171.853 137.529 174.755 139.74 C 175.34 140.197 176.839 141.318 177.756 141.755 C 180.467 143.032 181.891 143.806 182.679 144.572 C 183.92 145.783 184.906 148.313 183.713 149.846 C 182.229 151.738 179.664 150.237 178.532 149.565 C 170.441 144.764 169.25 136.294 166.448 131.432 C 164.211 127.545 160.577 124.69 157.327 124.457 C 154.892 124.276 152.264 124.769 149.65 125.918 C 143.289 128.706 139.811 132.306 138.988 132.942 C 137.28 134.261 124.014 147.284 113.268 147.814 C 113.268 147.814 111.933 150.486 111.598 150.53 C 110.812 150.63 110.008 148.936 109.432 148.738 C 108.889 148.558 107.977 150.573 107.429 150.484" transform="matrix(1.333333, 0, 0, -1.333333, 119.593445, 392.202606)"/>
  <path id="path18" style="fill:#231f20;fill-opacity:1;fill-rule:evenodd;stroke:none" d="M 60.117 72.765 C 59.104 72.79 58.245 73.62 58.245 74.646 L 58.248 108.171 L 47.199 108.171 L 47.199 71.217 C 47.199 69.404 48.666 67.928 50.467 67.928 L 69.779 67.928 C 71.591 67.928 73.041 69.404 73.041 71.217 L 73.041 108.171 L 62.002 108.171 L 61.993 74.646 C 61.993 73.62 61.133 72.79 60.117 72.765" transform="matrix(1.333333, 0, 0, -1.333333, 119.593445, 392.202606)"/>
  <path id="path20" style="fill:#231f20;fill-opacity:1;fill-rule:evenodd;stroke:none" d="M 97.109 108.171 L 80.388 108.171 C 78.408 108.171 76.797 106.562 76.797 104.563 L 76.797 67.928 L 87.856 67.928 L 87.856 101.532 C 87.863 102.561 88.695 103.378 89.725 103.378 C 90.757 103.378 91.586 102.581 91.609 101.561 L 91.609 67.928 L 102.621 67.928 L 102.621 101.561 C 102.636 102.581 103.463 103.378 104.495 103.378 C 105.516 103.378 106.36 102.561 106.366 101.532 L 106.366 67.928 L 117.427 67.928 L 117.427 104.563 C 117.427 106.562 115.813 108.171 113.834 108.171 L 97.109 108.171" transform="matrix(1.333333, 0, 0, -1.333333, 119.593445, 392.202606)"/>
  <path id="path22" style="fill:#231f20;fill-opacity:1;fill-rule:evenodd;stroke:none" d="M 39.829 78.041 L 28.667 78.041 L 28.667 67.928 L 17.623 67.928 L 17.623 108.171 L 39.899 108.171 C 41.893 108.171 43.45 106.55 43.45 104.546 L 43.45 81.668 C 43.45 79.657 41.832 78.041 39.829 78.041 Z M 32.414 101.462 C 32.422 102.581 31.511 103.378 30.545 103.378 L 28.667 103.378 L 28.667 83.022 L 30.545 83.022 C 31.517 83.022 32.422 83.797 32.414 84.913 L 32.414 101.462" transform="matrix(1.333333, 0, 0, -1.333333, 119.593445, 392.202606)"/>
  <path id="path24" style="fill:#231f20;fill-opacity:1;fill-rule:evenodd;stroke:none" d="M 160.298 72.699 C 160.298 69.964 158.106 67.743 155.393 67.743 C 152.654 67.743 150.452 69.949 150.452 72.699 C 150.452 75.394 152.654 77.648 155.313 77.648 C 158.106 77.648 160.298 75.462 160.298 72.699 Z M 155.325 76.927 C 153.104 76.927 151.24 75.01 151.24 72.684 C 151.24 70.352 153.104 68.451 155.393 68.451 C 157.664 68.451 159.506 70.352 159.506 72.684 C 159.506 75.014 157.664 76.927 155.393 76.927 L 155.325 76.927" transform="matrix(1.333333, 0, 0, -1.333333, 119.593445, 392.202606)"/>
  <path id="path26" style="fill:#231f20;fill-opacity:1;fill-rule:evenodd;stroke:none" d="M 157.711 69.831 L 156.393 69.831 L 154.696 72.088 L 154.696 69.831 L 153.621 69.831 L 153.621 75.536 L 154.751 75.536 C 156.29 75.536 157.108 74.956 157.108 73.843 C 157.108 73.101 156.624 72.445 155.952 72.245 L 155.873 72.217 Z M 154.883 73.014 C 155.649 73.014 156.056 73.284 156.056 73.829 C 156.056 74.315 155.665 74.563 154.916 74.563 L 154.696 74.563 L 154.696 73.014 L 154.883 73.014" transform="matrix(1.333333, 0, 0, -1.333333, 119.593445, 392.202606)"/>
  <path id="path28" style="fill:#231f20;fill-opacity:1;fill-rule:evenodd;stroke:none" d="M 135.968 67.928 L 135.968 78.031 L 132.213 78.031 L 132.213 67.928 L 121.176 67.928 L 121.176 104.563 C 121.176 106.562 122.788 108.171 124.767 108.171 L 143.415 108.171 C 145.399 108.171 147.009 106.562 147.009 104.563 L 147.009 67.928 Z M 135.968 83.016 L 135.968 101.546 C 135.941 102.571 135.117 103.358 134.085 103.358 C 133.066 103.358 132.223 102.539 132.213 101.518 L 132.213 83.016 L 135.968 83.016" transform="matrix(1.333333, 0, 0, -1.333333, 119.593445, 392.202606)"/>
  <path id="path30" style="fill:#231f20;fill-opacity:1;fill-rule:evenodd;stroke:none" d="M 17.933 47.633 L 17.933 58.688 L 19.166 58.688 L 19.166 57.65 C 19.457 58.056 19.786 58.362 20.153 58.565 C 20.518 58.767 20.962 58.87 21.484 58.87 C 22.167 58.87 22.768 58.693 23.29 58.344 C 23.814 57.992 24.207 57.496 24.471 56.856 C 24.739 56.216 24.872 55.515 24.872 54.752 C 24.872 53.935 24.726 53.198 24.43 52.543 C 24.137 51.888 23.711 51.387 23.151 51.038 C 22.591 50.69 22.002 50.516 21.386 50.516 C 20.934 50.516 20.53 50.611 20.171 50.801 C 19.811 50.991 19.518 51.232 19.287 51.523 L 19.287 47.633 Z M 19.159 54.647 C 19.159 53.619 19.366 52.859 19.783 52.365 C 20.199 51.875 20.706 51.628 21.296 51.628 C 21.897 51.628 22.413 51.882 22.843 52.394 C 23.272 52.902 23.487 53.691 23.487 54.76 C 23.487 55.779 23.277 56.54 22.858 57.049 C 22.44 57.555 21.938 57.809 21.358 57.809 C 20.78 57.809 20.268 57.54 19.824 57 C 19.38 56.461 19.159 55.674 19.159 54.647" transform="matrix(1.333333, 0, 0, -1.333333, 119.593445, 392.202606)"/>
  <path id="path32" style="fill:#231f20;fill-opacity:1;fill-rule:evenodd;stroke:none" d="M 39.448 50.696 L 39.448 51.87 C 38.824 50.965 37.979 50.516 36.91 50.516 C 36.44 50.516 35.998 50.606 35.59 50.785 C 35.181 50.965 34.878 51.194 34.68 51.466 C 34.48 51.741 34.341 52.075 34.261 52.471 C 34.207 52.738 34.179 53.159 34.179 53.737 L 34.179 58.688 L 35.533 58.688 L 35.533 54.256 C 35.533 53.547 35.561 53.072 35.615 52.825 C 35.703 52.468 35.882 52.191 36.157 51.985 C 36.435 51.782 36.776 51.682 37.182 51.682 C 37.588 51.682 37.969 51.785 38.325 51.993 C 38.683 52.201 38.934 52.486 39.081 52.843 C 39.23 53.203 39.304 53.724 39.304 54.406 L 39.304 58.688 L 40.658 58.688 L 40.658 50.696 L 39.448 50.696" transform="matrix(1.333333, 0, 0, -1.333333, 119.593445, 392.202606)"/>
  <path id="path34" style="fill:#231f20;fill-opacity:1;fill-rule:evenodd;stroke:none" d="M 50.487 50.696 L 50.487 58.688 L 51.697 58.688 L 51.697 57.568 C 51.949 57.958 52.283 58.274 52.699 58.511 C 53.115 58.749 53.59 58.87 54.122 58.87 C 54.713 58.87 55.198 58.747 55.576 58.5 C 55.956 58.254 56.223 57.912 56.378 57.47 C 57.012 58.403 57.834 58.87 58.847 58.87 C 59.64 58.87 60.249 58.649 60.676 58.21 C 61.102 57.771 61.315 57.095 61.315 56.183 L 61.315 50.696 L 59.969 50.696 L 59.969 55.731 C 59.969 56.273 59.925 56.663 59.838 56.902 C 59.748 57.139 59.589 57.331 59.36 57.478 C 59.129 57.622 58.857 57.696 58.546 57.696 C 57.983 57.696 57.518 57.509 57.146 57.134 C 56.776 56.761 56.588 56.162 56.588 55.34 L 56.588 50.696 L 55.234 50.696 L 55.234 55.888 C 55.234 56.491 55.124 56.943 54.903 57.244 C 54.682 57.545 54.322 57.696 53.819 57.696 C 53.439 57.696 53.087 57.596 52.763 57.393 C 52.44 57.193 52.203 56.9 52.059 56.514 C 51.913 56.127 51.841 55.569 51.841 54.842 L 51.841 50.696 L 50.487 50.696" transform="matrix(1.333333, 0, 0, -1.333333, 119.593445, 392.202606)"/>
  <path id="path36" style="fill:#231f20;fill-opacity:1;fill-rule:evenodd;stroke:none" d="M 76.246 51.682 C 75.742 51.256 75.259 50.955 74.797 50.778 C 74.332 50.603 73.834 50.516 73.302 50.516 C 72.423 50.516 71.75 50.729 71.277 51.158 C 70.807 51.587 70.571 52.137 70.571 52.802 C 70.571 53.195 70.658 53.552 70.838 53.876 C 71.015 54.2 71.249 54.459 71.537 54.654 C 71.827 54.85 72.151 54.998 72.513 55.099 C 72.778 55.168 73.179 55.238 73.715 55.302 C 74.809 55.433 75.616 55.587 76.132 55.77 C 76.138 55.954 76.14 56.073 76.14 56.122 C 76.14 56.673 76.012 57.064 75.755 57.288 C 75.411 57.596 74.895 57.748 74.214 57.748 C 73.577 57.748 73.106 57.637 72.8 57.414 C 72.497 57.19 72.274 56.795 72.127 56.227 L 70.804 56.409 C 70.925 56.974 71.123 57.434 71.398 57.781 C 71.673 58.13 72.074 58.4 72.595 58.588 C 73.117 58.775 73.721 58.87 74.409 58.87 C 75.092 58.87 75.645 58.788 76.071 58.629 C 76.498 58.467 76.811 58.266 77.014 58.022 C 77.215 57.778 77.353 57.473 77.435 57.1 C 77.479 56.869 77.502 56.453 77.502 55.852 L 77.502 54.046 C 77.502 52.784 77.53 51.988 77.589 51.657 C 77.646 51.323 77.761 51.001 77.931 50.696 L 76.516 50.696 C 76.377 50.975 76.284 51.304 76.246 51.682 Z M 76.132 54.709 C 75.64 54.506 74.902 54.336 73.921 54.195 C 73.363 54.115 72.968 54.025 72.739 53.925 C 72.508 53.825 72.328 53.678 72.205 53.483 C 72.079 53.29 72.015 53.077 72.015 52.841 C 72.015 52.479 72.154 52.178 72.426 51.936 C 72.698 51.697 73.099 51.577 73.625 51.577 C 74.147 51.577 74.612 51.69 75.018 51.918 C 75.424 52.147 75.724 52.46 75.914 52.856 C 76.061 53.162 76.132 53.614 76.132 54.21 L 76.132 54.709" transform="matrix(1.333333, 0, 0, -1.333333, 119.593445, 392.202606)"/>
  <path id="path38" style="fill:#231f20;fill-opacity:1;fill-rule:evenodd;stroke:none" d="M 87.69 50.696 L 87.69 52.24 L 89.234 52.24 L 89.234 50.696 L 87.69 50.696" transform="matrix(1.333333, 0, 0, -1.333333, 119.593445, 392.202606)"/>
  <path id="path40" style="fill:#231f20;fill-opacity:1;fill-rule:evenodd;stroke:none" d="M 104.509 53.624 L 105.84 53.449 C 105.696 52.532 105.323 51.813 104.722 51.294 C 104.124 50.775 103.387 50.516 102.513 50.516 C 101.421 50.516 100.54 50.873 99.877 51.587 C 99.212 52.301 98.878 53.326 98.878 54.662 C 98.878 55.525 99.022 56.281 99.307 56.928 C 99.595 57.575 100.029 58.061 100.614 58.384 C 101.198 58.708 101.835 58.87 102.521 58.87 C 103.389 58.87 104.101 58.649 104.651 58.21 C 105.203 57.771 105.557 57.149 105.714 56.34 L 104.396 56.137 C 104.27 56.673 104.049 57.077 103.731 57.349 C 103.412 57.619 103.027 57.756 102.575 57.756 C 101.891 57.756 101.336 57.511 100.91 57.021 C 100.484 56.532 100.27 55.759 100.27 54.701 C 100.27 53.627 100.476 52.846 100.889 52.358 C 101.301 51.872 101.838 51.628 102.5 51.628 C 103.032 51.628 103.474 51.793 103.831 52.119 C 104.188 52.445 104.414 52.946 104.509 53.624" transform="matrix(1.333333, 0, 0, -1.333333, 119.593445, 392.202606)"/>
  <path id="path42" style="fill:#231f20;fill-opacity:1;fill-rule:evenodd;stroke:none" d="M 114.199 54.693 C 114.199 56.173 114.61 57.27 115.435 57.981 C 116.121 58.572 116.958 58.87 117.947 58.87 C 119.047 58.87 119.946 58.511 120.642 57.788 C 121.341 57.07 121.688 56.075 121.688 54.806 C 121.688 53.776 121.534 52.967 121.225 52.379 C 120.917 51.788 120.468 51.33 119.879 51.004 C 119.288 50.678 118.646 50.516 117.947 50.516 C 116.83 50.516 115.925 50.873 115.234 51.592 C 114.543 52.309 114.199 53.341 114.199 54.693 Z M 115.591 54.693 C 115.591 53.668 115.815 52.902 116.262 52.394 C 116.709 51.882 117.271 51.628 117.947 51.628 C 118.62 51.628 119.18 51.885 119.627 52.396 C 120.072 52.907 120.295 53.688 120.295 54.737 C 120.295 55.726 120.072 56.476 119.622 56.984 C 119.173 57.493 118.615 57.748 117.947 57.748 C 117.271 57.748 116.709 57.493 116.262 56.987 C 115.815 56.481 115.591 55.715 115.591 54.693" transform="matrix(1.333333, 0, 0, -1.333333, 119.593445, 392.202606)"/>
  <path id="path44" style="fill:#231f20;fill-opacity:1;fill-rule:evenodd;stroke:none" d="M 130.982 50.696 L 130.982 58.688 L 132.192 58.688 L 132.192 57.568 C 132.444 57.958 132.778 58.274 133.194 58.511 C 133.61 58.749 134.086 58.87 134.617 58.87 C 135.208 58.87 135.694 58.747 136.071 58.5 C 136.451 58.254 136.719 57.912 136.873 57.47 C 137.507 58.403 138.329 58.87 139.341 58.87 C 140.136 58.87 140.744 58.649 141.171 58.21 C 141.597 57.771 141.811 57.095 141.811 56.183 L 141.811 50.696 L 140.464 50.696 L 140.464 55.731 C 140.464 56.273 140.421 56.663 140.333 56.902 C 140.243 57.139 140.084 57.331 139.855 57.478 C 139.624 57.622 139.352 57.696 139.041 57.696 C 138.478 57.696 138.014 57.509 137.641 57.134 C 137.271 56.761 137.084 56.162 137.084 55.34 L 137.084 50.696 L 135.73 50.696 L 135.73 55.888 C 135.73 56.491 135.619 56.943 135.398 57.244 C 135.177 57.545 134.818 57.696 134.314 57.696 C 133.934 57.696 133.582 57.596 133.258 57.393 C 132.934 57.193 132.698 56.9 132.554 56.514 C 132.408 56.127 132.336 55.569 132.336 54.842 L 132.336 50.696 L 130.982 50.696" transform="matrix(1.333333, 0, 0, -1.333333, 119.593445, 392.202606)"/>
</svg>